<svg xmlns="http://www.w3.org/2000/svg" viewBox="0 0 401.87 236.68"><defs><style>.cls-1{fill:#ffc0c8;}</style></defs><title>Asset 41</title><g id="Layer_2" data-name="Layer 2"><g id="Layer_1-2" data-name="Layer 1"><circle cx="134.07" cy="119.22" r="40.91"/><path class="cls-1" d="M5.14,91.27C12.06,62.4,33.89,39.88,70.06,24.32,104,9.72,149.71,2,202.25,2s98.26,7.72,132.2,22.32c36.17,15.56,58,38.08,64.92,66.95Z"/><path d="M202.25,4C254.53,4,300,11.66,333.66,26.16c17.7,7.61,32.1,17.08,42.81,28.15a80.88,80.88,0,0,1,20.32,35H7.72A80.78,80.78,0,0,1,28,54.31C38.75,43.24,53.15,33.77,70.85,26.16,104.54,11.66,150,4,202.25,4m0-4C100.33,0,16.08,28.87,2.64,93.27H401.87C388.43,28.87,304.18,0,202.25,0Z"/><path class="cls-1" d="M199.62,234.68c-52.56,0-98.28-7.5-132.22-21.69-36.13-15.1-57.94-36.94-64.88-64.93H396.71c-6.94,28-28.75,49.83-64.88,64.93C297.89,227.18,252.17,234.68,199.62,234.68Z"/><path d="M394.11,150.06a77.88,77.88,0,0,1-20.24,33.73c-10.71,10.75-25.11,20-42.81,27.36-33.7,14.09-79.16,21.53-131.44,21.53s-97.75-7.44-131.45-21.53c-17.7-7.4-32.1-16.61-42.81-27.36A77.88,77.88,0,0,1,5.12,150.06h389m5.12-4H0c13.44,62.57,97.69,90.62,199.62,90.62s186.17-28.05,199.61-90.62Z"/></g></g></svg>