<svg xmlns="http://www.w3.org/2000/svg" viewBox="0 0 410.83 376.5"><defs><style>.cls-1{fill:#ffeb18;}.cls-2{fill:#fffe6b;}.cls-3{fill:#fff;}</style></defs><title>Asset 34</title><g id="Layer_2" data-name="Layer 2"><g id="Layer_1-2" data-name="Layer 1"><path class="cls-1" d="M168,374C76.74,374,2.5,299.76,2.5,208.5S76.74,43,168,43A165.3,165.3,0,0,1,327.58,164.5H251a93.93,93.93,0,0,0-83.24-50c-24.9,0-46,9.65-61.06,27.91C92.7,159.39,85,183,85,209s7.71,49.49,21.7,66.35c15,18.09,36.13,27.65,61.05,27.65a93.82,93.82,0,0,0,83.5-50.5h76.33A165.3,165.3,0,0,1,168,374Z"/><path d="M168,45.5A162.38,162.38,0,0,1,268.82,80.41,164.09,164.09,0,0,1,324.27,162h-71.8a96.72,96.72,0,0,0-84.72-50c-25.67,0-47.45,10-63,28.82C90.41,158.25,82.5,182.46,82.5,209s7.91,50.64,22.28,67.94c15.5,18.69,37.28,28.56,63,28.56a96.7,96.7,0,0,0,85-50.5h71.53a164.09,164.09,0,0,1-55.45,81.59A163,163,0,1,1,168,45.5m0-5A168,168,0,1,0,330.83,250H249.72a91.73,91.73,0,0,1-82,50.5c-50.67,0-80.25-40.83-80.25-91.5s29.58-92,80.25-92a91.74,91.74,0,0,1,81.72,50h81.36A168.06,168.06,0,0,0,168,40.5Z"/><path class="cls-2" d="M208,353.5c-91.26,0-165.5-74.24-165.5-165.5S116.74,22.5,208,22.5A165.3,165.3,0,0,1,367.58,144H291a94.25,94.25,0,1,0,.26,88h76.33A165.3,165.3,0,0,1,208,353.5Z"/><path d="M208,25A162.38,162.38,0,0,1,308.82,59.91a164.09,164.09,0,0,1,55.45,81.59h-71.8a96.77,96.77,0,1,0,.27,93h71.53a164.09,164.09,0,0,1-55.45,81.59A163,163,0,1,1,208,25m0-5A168,168,0,1,0,370.83,229.5H289.72a91.75,91.75,0,1,1-.25-83h81.36A168.06,168.06,0,0,0,208,20Z"/><path class="cls-3" d="M248,333.5c-91.26,0-165.5-74.24-165.5-165.5S156.74,2.5,248,2.5A165.3,165.3,0,0,1,407.58,124H331a94.25,94.25,0,1,0,.26,88h76.33A165.3,165.3,0,0,1,248,333.5Z"/><path d="M248,5A162.38,162.38,0,0,1,348.82,39.91a164.09,164.09,0,0,1,55.45,81.59h-71.8a96.77,96.77,0,1,0,.27,93h71.53a164.09,164.09,0,0,1-55.45,81.59A163,163,0,0,1,132.74,52.74,162,162,0,0,1,248,5m0-5A168,168,0,1,0,410.83,209.5H329.72a91.75,91.75,0,1,1-.25-83h81.36A168.06,168.06,0,0,0,248,0Z"/></g></g></svg>