<svg xmlns="http://www.w3.org/2000/svg" viewBox="0 0 421.54 397.96"><defs><style>.cls-1{fill:#ff56c6;}.cls-2{fill:#ff96be;}.cls-3{fill:#fff;}</style></defs><title>Asset 37</title><g id="Layer_2" data-name="Layer 2"><g id="Layer_1-2" data-name="Layer 1"><path class="cls-1" d="M224.05,283.88l-115.42,23L72.9,394.72,3.27,367.35,126.44,64.62H215.6L338.77,367.35l-69.62,27.37ZM139,232.23l59.24-11.79L171,153.55Z"/><path d="M213.91,67.12,335.5,366l-65,25.54L227.14,284.85,225.58,281l-4.05.81L109.46,304.17l-2.64.53-1,2.49-34.3,84.3L6.54,366,128.13,67.12h85.78m-79,168.47,9.11-1.81,51.71-10.3,5.93-1.18-2.28-5.61L175.65,158.3,171,146.92l-4.63,11.38L138.44,227l-3.5,8.6M217.52,62.12h-93l.21.08L0,368.76,74.28,398l36.16-88.88,112.07-22.34L267.76,398,342,368.76,217.31,62.2l.21-.08ZM143.07,228.88l28-68.69,23.76,58.39-51.71,10.3Z"/><path class="cls-2" d="M263.55,253.88l-115.42,23L112.4,364.72,42.77,337.35,165.94,34.62H255.1L378.27,337.35l-69.62,27.37ZM178.5,202.23l59.24-11.79-27.22-66.89Z"/><path d="M253.41,37.12,375,336l-65,25.54L266.64,254.85,265.08,251l-4.05.81L149,274.17l-2.64.53-1,2.49L111,361.49,46,336,167.63,37.12h85.78m-79,168.47,9.11-1.81,51.71-10.3,5.93-1.18-2.28-5.61L215.15,128.3l-4.63-11.38-4.63,11.38L177.94,197l-3.5,8.6M257,32.12H164l.21.08L39.5,338.76,113.78,368l36.16-88.88L262,256.74,307.26,368l74.28-29.2L256.81,32.2l.21-.08ZM182.57,198.88l28-68.69,23.76,58.39-51.71,10.3Z"/><path class="cls-3" d="M303.76,222,188.29,244.73l-36,87.75L82.77,304.94,206.7,2.5l89.15.23,122.42,303L348.58,333Zm-84.92-51.86L278.1,158.5l-27-66.95Z"/><path d="M208.38,5l85.79.21L415,304.36l-65,25.38L306.85,223l-1.55-3.83-4.05.8L189.12,242l-2.64.52-1,2.49L151,329.25l-64.9-25.71L208.38,5m6.39,168.49,9.11-1.79,51.74-10.17,5.94-1.17-2.27-5.61L255.68,96.31l-4.61-11.39-4.66,11.37-28.12,68.62-3.52,8.59M204.78,0l.21.08L79.5,306.33l74.21,29.38,36.38-88.79,112.12-22.06,45,111.34,74.35-29L297.57.31l.21-.08-93-.23Zm18.14,166.81L251,98.19l23.61,58.44-51.73,10.18Z"/></g></g></svg>