<svg xmlns="http://www.w3.org/2000/svg" viewBox="0 0 458.04 427.84"><defs><style>.cls-1{fill:#ffb8de;}.cls-2{fill:#ff56c6;}.cls-3{fill:#ffdde8;}.cls-4{fill:#ffebe9;}.cls-5{fill:#fff;}</style></defs><title>Asset 14</title><g id="Layer_2" data-name="Layer 2"><g id="Layer_1-2" data-name="Layer 1"><path class="cls-1" d="M224.35,313.19,108.27,336.33,72.62,424,3.92,397,126.78,95h88.48L338.12,397l-68.7,27Zm-86.16-50.4,60.74-12.1L171,182.11Z"/><path class="cls-2" d="M213.24,98l121,297.28-63.11,24.81-43-105.73-1.87-4.59-4.86,1L109.27,333.08l-3.17.63-1.22,3L71,420.09,7.85,395.28,128.8,98h84.44M133.31,266.82l10.93-2.18L196,254.34l7.12-1.41-2.73-6.73-23.76-58.39L171,174.15l-5.56,13.66-28,68.69-4.2,10.32M217.52,92h-93l.21.08L0,398.64l74.28,29.2L110.44,339l112.07-22.34,45.25,111.22L342,398.64,217.31,92.08l.21-.08ZM143.07,258.76l28-68.69,23.76,58.39-51.71,10.3Z"/><path class="cls-3" d="M261.35,283.19,145.27,306.33,109.62,394l-68.7-27L163.78,65h88.48L375.12,367l-68.7,27Zm-86.16-50.4,60.74-12.1L208,152.11Z"/><path class="cls-2" d="M250.24,68l121,297.28-63.11,24.81-43-105.73-1.87-4.59-4.86,1L146.27,303.08l-3.17.63-1.22,3L108,390.09,44.85,365.28,165.8,68h84.44M170.31,236.82l10.93-2.18L233,224.34l7.12-1.41-2.73-6.73-23.76-58.39L208,144.15l-5.56,13.66-28,68.69-4.2,10.32M254.52,62h-93l.21.08L37,368.64l74.28,29.2L147.44,309l112.07-22.34,45.25,111.22L379,368.64,254.31,62.08l.21-.08ZM180.07,228.76l28-68.69,23.76,58.39-51.71,10.3Z"/><path class="cls-4" d="M301.35,251.19,185.27,274.33,149.62,362l-68.7-27L203.78,33h88.48L415.12,335l-68.7,27Zm-86.16-50.4,60.74-12.1L248,120.11Z"/><path class="cls-2" d="M290.24,36l121,297.28-63.11,24.81-43-105.73-1.87-4.59-4.86,1L186.27,271.08l-3.17.63-1.22,3L148,358.09,84.85,333.28,205.8,36h84.44M210.31,204.82l10.93-2.18L273,192.34l7.12-1.41-2.73-6.73-23.76-58.39L248,112.15l-5.56,13.66-28,68.69-4.2,10.32M294.52,30h-93l.21.08L77,336.64l74.28,29.2L187.44,277l112.07-22.34,45.25,111.22L419,336.64,294.31,30.08l.21-.08ZM220.07,196.76l28-68.69,23.76,58.39-51.71,10.3Z"/><path class="cls-5" d="M340.35,221.19,224.27,244.33,188.62,332l-68.7-27L242.78,3h88.48L454.12,305l-68.7,27Zm-86.16-50.4,60.74-12.1L287,90.11Z"/><path class="cls-2" d="M329.24,6l121,297.28-63.11,24.81-43-105.73-1.87-4.59-4.86,1L225.27,241.08l-3.17.63-1.22,3L187,328.09l-63.11-24.81L244.8,6h84.44M249.31,174.82l10.93-2.18L312,162.34l7.12-1.41-2.73-6.73L292.58,95.81,287,82.15l-5.56,13.66L253.51,164.5l-4.2,10.32M333.52,0h-93l.21.08L116,306.64l74.28,29.2L226.44,247l112.07-22.34,45.25,111.22L458,306.64,333.31.08l.21-.08ZM259.07,166.76,287,98.07l23.76,58.39-51.71,10.3Z"/></g></g></svg>