<svg xmlns="http://www.w3.org/2000/svg" viewBox="0 0 381.28 449.38"><defs><style>.cls-1{fill:#90bc96;}.cls-1,.cls-2,.cls-3,.cls-4{stroke:#15ba83;stroke-miterlimit:10;stroke-width:6px;}.cls-2{fill:#90e184;}.cls-3{fill:#90dbaa;}.cls-4{fill:#fff;}</style></defs><title>Asset 15</title><g id="Layer_2" data-name="Layer 2"><g id="Layer_1-2" data-name="Layer 1"><polygon class="cls-1" points="300.98 178.81 291.68 91.3 3.3 121.96 12.6 209.46 116.13 198.46 116.13 446.38 191.21 446.38 191.21 190.48 300.98 178.81"/><polygon class="cls-2" points="325.98 152.81 316.68 65.3 28.3 95.96 37.6 183.46 141.13 172.46 141.13 420.38 216.21 420.38 216.21 164.48 325.98 152.81"/><polygon class="cls-3" points="353.98 125.81 344.68 38.3 56.3 68.96 65.6 156.46 169.13 145.46 169.13 393.38 244.21 393.38 244.21 137.48 353.98 125.81"/><polygon class="cls-4" points="377.98 90.81 368.68 3.3 80.3 33.96 89.6 121.46 193.13 110.46 193.13 358.38 268.21 358.38 268.21 102.48 377.98 90.81"/></g></g></svg>