<svg xmlns="http://www.w3.org/2000/svg" viewBox="0 0 529.83 411"><defs><style>.cls-1{fill:#fff96c;}.cls-2{fill:#ffeb18;}.cls-3{fill:#fffaab;}.cls-4{fill:#fff8ab;}.cls-5{fill:#fff;}</style></defs><title>Asset 17</title><g id="Layer_2" data-name="Layer 2"><g id="Layer_1-2" data-name="Layer 1"><path class="cls-1" d="M168,408C77,408,3,334,3,243S77,78,168,78A164.83,164.83,0,0,1,326.93,198.5H251.29a94.41,94.41,0,0,0-83.54-50c-25.06,0-46.3,9.71-61.44,28.09C92.25,193.66,84.5,217.43,84.5,243.5s7.75,49.72,21.82,66.67C121.43,328.38,142.67,338,167.75,338a94.31,94.31,0,0,0,83.8-50.5h75.38A164.83,164.83,0,0,1,168,408Z"/><path class="cls-2" d="M168,81a161.28,161.28,0,0,1,100.2,34.7,163.13,163.13,0,0,1,54.72,79.8H253.06a97.71,97.71,0,0,0-85.31-50c-26,0-48,10.09-63.76,29.18-14.5,17.61-22.49,42-22.49,68.82s8,51.1,22.51,68.58C119.71,331,141.75,341,167.75,341a97.77,97.77,0,0,0,85.59-50.5h69.58a163.13,163.13,0,0,1-54.72,79.8A162,162,0,1,1,168,81m0-6A168,168,0,1,0,330.83,284.5H249.72a91.73,91.73,0,0,1-82,50.5c-50.67,0-80.25-40.83-80.25-91.5s29.58-92,80.25-92a91.74,91.74,0,0,1,81.72,50h81.36A168.06,168.06,0,0,0,168,75Z"/><path class="cls-3" d="M238,387c-91,0-165-74-165-165S147,57,238,57A164.83,164.83,0,0,1,396.93,177.5H321.29a94.76,94.76,0,1,0,.26,89h75.38A164.83,164.83,0,0,1,238,387Z"/><path class="cls-2" d="M238,60A161.28,161.28,0,0,1,338.2,94.7a163.13,163.13,0,0,1,54.72,79.8H323.06a97.74,97.74,0,1,0,.28,95h69.58a163.13,163.13,0,0,1-54.72,79.8A162,162,0,1,1,238,60m0-6A168,168,0,1,0,400.83,263.5H319.72a91.75,91.75,0,1,1-.25-83h81.36A168.06,168.06,0,0,0,238,54Z"/><path class="cls-4" d="M301,358c-91,0-165-74-165-165S210,28,301,28A164.83,164.83,0,0,1,459.93,148.5H384.29a94.76,94.76,0,1,0,.26,89h75.38A164.83,164.83,0,0,1,301,358Z"/><path class="cls-2" d="M301,31A161.28,161.28,0,0,1,401.2,65.7a163.13,163.13,0,0,1,54.72,79.8H386.06a97.74,97.74,0,1,0,.28,95h69.58a163.13,163.13,0,0,1-54.72,79.8A162,162,0,1,1,301,31m0-6A168,168,0,1,0,463.83,234.5H382.72a91.75,91.75,0,1,1-.25-83h81.36A168.06,168.06,0,0,0,301,25Z"/><path class="cls-5" d="M367,333c-91,0-165-74-165-165S276,3,367,3A164.83,164.83,0,0,1,525.93,123.5H450.29a94.76,94.76,0,1,0,.26,89h75.38A164.83,164.83,0,0,1,367,333Z"/><path class="cls-2" d="M367,6A161.28,161.28,0,0,1,467.2,40.7a163.13,163.13,0,0,1,54.72,79.8H452.06a97.74,97.74,0,1,0,.28,95h69.58a163.13,163.13,0,0,1-54.72,79.8A162,162,0,0,1,252.45,53.45,160.94,160.94,0,0,1,367,6m0-6A168,168,0,1,0,529.83,209.5H448.72a91.75,91.75,0,1,1-.25-83h81.36A168.06,168.06,0,0,0,367,0Z"/></g></g></svg>