<svg xmlns="http://www.w3.org/2000/svg" viewBox="0 0 641.87 423.87"><defs><style>.cls-1{fill:#6d4cf4;}.cls-1,.cls-2,.cls-3,.cls-4{stroke:blue;stroke-miterlimit:10;stroke-width:6px;}.cls-2{fill:#559cdb;}.cls-3{fill:#5eb2c9;}.cls-4{fill:#fff;}</style></defs><title>Asset 16</title><g id="Layer_2" data-name="Layer 2"><g id="Layer_1-2" data-name="Layer 1"><polygon class="cls-1" points="3.94 113.87 128.94 420.87 194.94 420.87 267.94 240.7 340.94 420.87 406.94 420.87 531.93 113.87 456.94 84.87 375.63 288.32 305.94 112.87 231.94 127.87 162.3 287.9 79.94 84.87 3.94 113.87"/><polygon class="cls-2" points="34.94 90.87 159.94 397.87 225.94 397.87 298.94 217.7 371.94 397.87 437.94 397.87 562.93 90.87 487.94 61.87 406.63 265.32 336.94 89.87 262.94 104.87 193.3 264.9 110.94 61.87 34.94 90.87"/><polygon class="cls-3" points="72.94 63.87 197.94 370.87 263.94 370.87 336.94 190.7 409.94 370.87 475.94 370.87 600.93 63.87 525.93 34.87 444.63 238.32 374.94 62.87 300.94 77.87 231.3 237.9 148.94 34.87 72.94 63.87"/><polygon class="cls-4" points="109.94 32.87 234.94 339.87 300.94 339.87 373.94 159.7 446.94 339.87 512.93 339.87 637.93 32.87 562.93 3.87 481.63 207.32 411.94 31.87 337.94 46.87 268.3 206.9 185.94 3.87 109.94 32.87"/></g></g></svg>