<svg xmlns="http://www.w3.org/2000/svg" viewBox="0 0 614.55 391.72"><defs><style>.cls-1{fill:blue;}.cls-1,.cls-2,.cls-3{stroke:#000;stroke-miterlimit:10;stroke-width:5px;}.cls-2{fill:#009ee3;}.cls-3{fill:#fff;}</style></defs><title>Asset 39</title><g id="Layer_2" data-name="Layer 2"><g id="Layer_1-2" data-name="Layer 1"><polygon class="cls-1" points="3.28 82.22 128.28 389.22 194.28 389.22 267.28 209.05 340.28 389.22 406.28 389.22 531.28 82.22 456.28 53.22 374.97 256.67 305.28 81.22 231.28 96.22 161.65 256.26 79.28 53.22 3.28 82.22"/><polygon class="cls-2" points="43.28 59.22 168.28 366.22 234.28 366.22 307.28 186.05 380.28 366.22 446.28 366.22 571.28 59.22 496.28 30.22 414.97 233.67 345.28 58.22 271.28 73.22 201.65 233.26 119.28 30.22 43.28 59.22"/><polygon class="cls-3" points="83.28 32.22 208.28 339.22 274.28 339.22 347.28 159.05 420.28 339.22 486.28 339.22 611.28 32.22 536.28 3.22 454.97 206.67 385.28 31.22 311.28 46.22 241.65 206.26 159.28 3.22 83.28 32.22"/></g></g></svg>